<?xml version="1.0" standalone="no"?>
<!DOCTYPE svg PUBLIC "-//W3C//DTD SVG 20010904//EN"
 "http://www.w3.org/TR/2001/REC-SVG-20010904/DTD/svg10.dtd">
<svg version="1.0" xmlns="http://www.w3.org/2000/svg"
 width="326.000000pt" height="326.000000pt" viewBox="0 0 326.000000 326.000000"
 preserveAspectRatio="xMidYMid meet">

<g transform="translate(0.000000,326.000000) scale(0.100000,-0.100000)"
fill="#000000" stroke="none">
<path d="M1761 3105 c-161 -45 -294 -169 -353 -330 -34 -94 -32 -235 6 -340
38 -105 121 -271 203 -404 69 -112 271 -408 283 -416 9 -6 218 297 305 441 82
136 145 266 181 369 37 106 40 258 6 348 -53 146 -168 263 -312 318 -73 29
-241 36 -319 14z m231 -227 c22 -6 63 -32 91 -57 152 -137 124 -368 -55 -463
-60 -32 -194 -33 -253 -1 -175 93 -212 310 -78 448 73 76 191 104 295 73z"/>
<path d="M764 2451 c-27 -16 -157 -167 -312 -361 l-52 -65 536 -3 c296 -1 539
0 542 2 2 3 -7 25 -22 50 -51 87 -126 246 -150 318 l-25 73 -243 3 c-223 2
-246 1 -274 -17z"/>
<path d="M2510 2430 c0 -26 -65 -175 -125 -285 -36 -66 -65 -121 -65 -122 0
-2 120 -3 266 -3 169 0 264 4 262 10 -4 12 -318 399 -329 406 -5 3 -9 0 -9 -6z"/>
<path d="M164 2210 c-30 -12 -54 -49 -54 -83 0 -29 38 -76 62 -78 7 0 51 -4
97 -8 l84 -7 29 46 c31 47 33 95 7 126 -13 16 -188 19 -225 4z"/>
<path d="M2876 2201 c-26 -28 -24 -81 4 -125 l23 -38 96 7 c108 7 144 24 149
70 10 81 -27 105 -161 105 -80 0 -96 -3 -111 -19z"/>
<path d="M315 1968 c-66 -25 -147 -93 -176 -150 -17 -33 -19 -60 -19 -228 l0
-190 409 0 409 0 12 38 c7 20 36 83 66 140 30 57 54 111 54 122 0 30 -85 125
-151 169 -101 68 -219 95 -454 106 -78 3 -131 1 -150 -7z"/>
<path d="M2709 1970 c-140 -12 -241 -34 -309 -67 -62 -30 -196 -158 -205 -196
-5 -17 3 -39 26 -77 18 -29 49 -92 70 -139 l37 -86 408 2 409 3 3 172 c2 167
2 173 -23 225 -15 29 -45 68 -67 88 -89 76 -158 90 -349 75z"/>
<path d="M1151 1598 c-31 -28 -83 -141 -79 -170 2 -14 21 -33 52 -53 l49 -30
431 -3 c467 -3 486 -2 557 50 45 32 45 33 2 128 -13 30 -34 65 -45 77 -39 42
-58 31 -134 -77 -38 -54 -73 -99 -79 -99 -5 0 -41 45 -80 99 l-70 99 -291 1
c-284 0 -291 0 -313 -22z"/>
<path d="M119 1333 c0 -5 0 -73 1 -153 2 -158 9 -184 60 -222 28 -20 30 -26
30 -89 0 -58 4 -72 26 -98 l26 -31 153 0 c184 0 196 5 205 91 l5 54 1006 3
1006 2 5 -50 c4 -34 13 -59 28 -75 23 -24 27 -25 176 -25 145 0 154 1 178 23
23 21 35 70 36 157 0 17 9 30 28 41 51 29 62 70 62 233 l0 146 -436 0 c-410 0
-438 -1 -462 -19 -15 -10 -52 -31 -82 -47 l-55 -29 -465 -3 c-328 -2 -477 0
-505 8 -22 7 -67 29 -101 51 l-60 39 -432 0 c-238 0 -432 -3 -433 -7z"/>
<path d="M2577 566 c-50 -19 -76 -42 -98 -91 -50 -109 -1 -232 106 -265 22 -7
58 -30 80 -51 46 -44 81 -59 136 -59 38 0 39 1 39 35 0 33 -2 35 -35 35 -37 0
-95 24 -95 39 0 4 12 14 26 21 14 8 37 33 50 56 30 50 33 147 7 201 -33 71
-137 108 -216 79z m125 -86 c58 -71 18 -210 -60 -210 -95 0 -134 158 -54 220
33 27 88 21 114 -10z"/>
<path d="M470 453 c-23 -65 -53 -146 -66 -180 l-23 -63 44 0 c43 0 45 1 56 40
l12 41 66 -3 c66 -3 66 -3 77 -38 11 -33 15 -35 58 -38 l46 -3 -11 28 c-6 15
-33 89 -59 163 -26 74 -51 143 -55 153 -5 13 -19 17 -55 17 l-47 0 -43 -117z
m114 -32 c9 -30 16 -58 16 -63 0 -4 -18 -8 -40 -8 -24 0 -40 5 -40 12 0 28 34
128 41 121 4 -4 14 -32 23 -62z"/>
<path d="M1630 390 l0 -180 40 0 40 0 0 70 c0 56 3 70 15 70 21 0 48 -29 81
-89 29 -50 30 -51 76 -51 l48 0 -36 58 c-20 31 -46 67 -57 79 l-20 22 31 26
c58 49 51 134 -13 160 -21 9 -68 15 -120 15 l-85 0 0 -180z m158 108 c7 -7 12
-24 12 -40 0 -30 -23 -48 -64 -48 -24 0 -26 3 -26 50 0 50 0 50 33 50 18 0 38
-5 45 -12z"/>
<path d="M1143 530 c-15 -6 -23 -18 -23 -34 0 -18 -6 -25 -22 -28 -34 -5 -38
-55 -6 -60 22 -3 23 -8 26 -85 3 -75 5 -84 29 -103 43 -34 103 -24 103 16 0
17 -6 24 -20 24 -28 0 -41 33 -38 93 3 48 5 52 31 55 23 3 27 8 27 33 0 26 -3
29 -30 29 -28 0 -30 3 -30 35 0 37 -8 41 -47 25z"/>
<path d="M780 362 c0 -123 10 -147 65 -158 24 -4 43 -1 66 13 24 13 33 15 36
6 3 -7 20 -13 39 -13 l34 0 0 130 0 130 -35 0 -35 0 0 -84 c0 -99 -18 -134
-62 -123 -32 8 -38 29 -38 130 l0 77 -35 0 -35 0 0 -108z"/>
<path d="M1339 447 c-82 -55 -71 -185 18 -228 57 -27 121 -20 165 20 26 23 32
37 36 83 8 97 -39 148 -136 148 -34 0 -59 -7 -83 -23z m131 -56 c5 -11 10 -38
10 -60 0 -80 -88 -98 -111 -23 -9 32 -8 44 5 70 14 27 22 32 51 32 24 0 37 -6
45 -19z"/>
<path d="M2008 454 c-37 -19 -58 -63 -58 -118 0 -83 34 -122 112 -132 63 -7
102 7 106 38 3 24 2 25 -52 20 -60 -5 -86 7 -86 39 0 17 8 19 80 19 l80 0 0
36 c0 71 -41 114 -110 113 -25 0 -57 -6 -72 -15z m100 -46 c7 -7 12 -20 12
-30 0 -15 -8 -18 -45 -18 -37 0 -45 3 -45 18 0 24 19 42 45 42 12 0 26 -5 33
-12z"/>
<path d="M2270 457 c-30 -15 -45 -54 -36 -91 5 -21 20 -33 61 -52 30 -13 55
-28 55 -34 0 -19 -47 -30 -82 -19 -18 5 -34 9 -35 9 -2 0 -3 -13 -3 -29 0 -27
3 -30 44 -36 70 -11 138 20 147 65 8 40 -11 68 -61 89 -37 16 -50 27 -48 39 3
13 14 17 51 15 47 -1 48 0 45 25 -3 25 -7 27 -58 30 -30 1 -66 -4 -80 -11z"/>
</g>
</svg>
